<svg width="1600" height="801" viewBox="0 0 1600 801" fill="none" xmlns="http://www.w3.org/2000/svg">
<g clip-path="url(#clip0_11114_404)">
<rect width="1600" height="800" transform="translate(0 0.278809)" fill="white"/>
<path d="M1600 800.279V0.278809L0 800.279H1600Z" fill="#003049"/>
<mask id="mask0_11114_404" style="mask-type:luminance" maskUnits="userSpaceOnUse" x="614" y="-93" width="987" height="987">
<path d="M1150.23 -93L614 356.951L1063.95 893.182L1600.18 443.231L1150.23 -93Z" fill="white"/>
</mask>
<g mask="url(#mask0_11114_404)">
<path d="M1102.97 121.823C1103.65 71.8666 1032.55 61.8741 1019.43 110.081C999.724 64.1689 930.707 83.9591 938.326 133.336C901.654 99.4064 846.653 145.558 873.698 187.567C826.395 171.487 794.919 236.021 836.713 263.396C786.958 267.947 784.452 339.703 833.767 347.714C790.165 372.106 817.062 438.679 865.372 425.938L886.321 450.904L1195.47 191.498L1174.52 166.532C1195.46 121.169 1134.57 83.1202 1102.97 121.823Z" fill="#FFF7E6"/>
<path d="M1093.36 186.304C1088.2 190.631 1080.5 190.043 1076.06 184.944C1070.75 178.836 1063.38 175.316 1055.29 175.025C1047.58 174.749 1040.21 177.5 1034.57 182.752C1028.92 188.01 1025.66 195.154 1025.38 202.869C1025.17 208.768 1020.82 213.7 1014.99 214.644C1009.16 215.59 1003.48 212.288 1001.41 206.758C999.412 201.398 995.443 197.14 990.237 194.766C985.029 192.391 979.212 192.188 973.852 194.191C962.788 198.327 957.149 210.691 961.285 221.756C963.678 228.159 960.425 235.292 954.023 237.684C947.619 240.077 940.486 236.825 938.095 230.421C929.18 206.57 941.333 179.915 965.186 171.001C976.739 166.685 989.284 167.125 1000.51 172.24C1003.18 173.46 1005.71 174.912 1008.06 176.57C1010.65 172.205 1013.88 168.186 1017.7 164.629C1028.2 154.859 1041.86 149.769 1056.18 150.283C1070.97 150.813 1085.03 157.522 1094.74 168.691C1099.23 173.848 1098.69 181.667 1093.53 186.155C1093.47 186.206 1093.41 186.255 1093.36 186.304Z" fill="#FCBF49"/>
<path d="M951.534 396.185L979.327 415.411L975.363 440.558L1247.12 715.815L1272.3 718.357L1452.27 567.343L1211.7 177.877L951.534 396.185Z" fill="#FFF7E6"/>
<path d="M1061.85 346.169L1332.07 668.206L1391.83 618.056L1144.37 276.927L1105.23 268.765L1056.46 309.69L1061.85 346.169Z" fill="#D62828"/>
<path d="M951.534 396.185L870.088 464.526L1211.86 769.07L1272.3 718.357L979.326 415.411L951.534 396.185Z" fill="#D62828"/>
<path opacity="0.1" d="M870.088 464.526L925.811 514.18L1250.93 241.375L1211.7 177.877L951.534 396.185L870.088 464.526Z" fill="black"/>
<path d="M1183.57 158.939L856.325 433.53C842.535 445.101 840.738 465.657 852.307 479.446C863.878 493.234 884.435 495.032 898.223 483.463L1225.47 208.872C1239.26 197.302 1241.05 176.744 1229.48 162.956C1217.91 149.167 1197.36 147.37 1183.57 158.939Z" fill="#FCBF49"/>
</g>
</g>
<defs>
<clipPath id="clip0_11114_404">
<rect width="1600" height="800" fill="white" transform="translate(0 0.278809)"/>
</clipPath>
</defs>
</svg>
