<svg width="44" height="44" viewBox="0 0 44 44" fill="none" xmlns="http://www.w3.org/2000/svg">
<path d="M22 0.5C33.8741 0.5 43.5 10.1259 43.5 22C43.5 33.8741 33.8741 43.5 22 43.5C10.1259 43.5 0.5 33.8741 0.5 22C0.5 10.1259 10.1259 0.5 22 0.5Z" fill="#2C2C2C"/>
<path d="M22 0.5C33.8741 0.5 43.5 10.1259 43.5 22C43.5 33.8741 33.8741 43.5 22 43.5C10.1259 43.5 0.5 33.8741 0.5 22C0.5 10.1259 10.1259 0.5 22 0.5Z" stroke="#2C2C2C" stroke-linecap="round"/>
<path d="M17.8333 21.1667L21.1667 13.6667C21.8297 13.6667 22.4656 13.93 22.9344 14.3989C23.4033 14.8677 23.6667 15.5036 23.6667 16.1667V19.5H28.3833C28.6249 19.4973 28.8642 19.5471 29.0846 19.646C29.3051 19.7449 29.5013 19.8906 29.6599 20.0729C29.8184 20.2552 29.9354 20.4698 30.0028 20.7019C30.0701 20.9339 30.0862 21.1778 30.05 21.4167L28.9 28.9167C28.8397 29.3141 28.6379 29.6763 28.3316 29.9367C28.0253 30.197 27.6353 30.3379 27.2333 30.3333H17.8333M17.8333 21.1667V30.3333M17.8333 21.1667H15.3333C14.8913 21.1667 14.4674 21.3423 14.1548 21.6548C13.8423 21.9674 13.6667 22.3913 13.6667 22.8333V28.6667C13.6667 29.1087 13.8423 29.5326 14.1548 29.8452C14.4674 30.1577 14.8913 30.3333 15.3333 30.3333H17.8333" stroke="#F5F5F5" stroke-width="2" stroke-linecap="round" stroke-linejoin="round"/>
</svg>
