<svg width="44" height="44" viewBox="0 0 44 44" fill="none" xmlns="http://www.w3.org/2000/svg">
<path d="M22 0.5C33.8741 0.5 43.5 10.1259 43.5 22C43.5 33.8741 33.8741 43.5 22 43.5C10.1259 43.5 0.5 33.8741 0.5 22C0.5 10.1259 10.1259 0.5 22 0.5Z" fill="#2C2C2C"/>
<path d="M22 0.5C33.8741 0.5 43.5 10.1259 43.5 22C43.5 33.8741 33.8741 43.5 22 43.5C10.1259 43.5 0.5 33.8741 0.5 22C0.5 10.1259 10.1259 0.5 22 0.5Z" stroke="#2C2C2C" stroke-linecap="round"/>
<path d="M26.1667 22.8333L22.8333 30.3333C22.1703 30.3333 21.5344 30.0699 21.0656 29.6011C20.5967 29.1322 20.3333 28.4964 20.3333 27.8333V24.5H15.6167C15.3751 24.5027 15.1358 24.4529 14.9154 24.354C14.6949 24.255 14.4986 24.1094 14.3401 23.9271C14.1816 23.7447 14.0646 23.5301 13.9972 23.2981C13.9298 23.0661 13.9137 22.8222 13.95 22.5833L15.1 15.0833C15.1603 14.6859 15.3621 14.3236 15.6684 14.0633C15.9747 13.803 16.3647 13.6621 16.7667 13.6667H26.1667M26.1667 22.8333V13.6667M26.1667 22.8333H28.3917C28.8633 22.8417 29.3216 22.6765 29.6795 22.3693C30.0374 22.0621 30.2701 21.6341 30.3333 21.1667V15.3333C30.2701 14.8659 30.0374 14.4379 29.6795 14.1307C29.3216 13.8234 28.8633 13.6583 28.3917 13.6667H26.1667" stroke="#F5F5F5" stroke-width="2" stroke-linecap="round" stroke-linejoin="round"/>
</svg>
