<svg width="32" height="48" viewBox="0 0 32 48" fill="none" xmlns="http://www.w3.org/2000/svg">
<path d="M12.7416 11.52V4.80005H15.2871V11.52H12.7416ZM12.7416 29.9734V23.2534H15.2871V29.9734H12.7416ZM18.7489 18.8267V15.9467H27.1998V18.8267H18.7489ZM27.1998 16H18.7489C18.7489 14.5778 18.4265 13.4756 17.7816 12.6934C17.1707 11.9112 16.3222 11.52 15.2362 11.52V4.80005C17.5101 4.80005 19.5465 5.29783 21.3453 6.29338C23.144 7.25338 24.5695 8.58672 25.6216 10.2934C26.6737 11.9645 27.1998 13.8667 27.1998 16ZM27.1998 18.7734C27.1998 20.9067 26.6737 22.8267 25.6216 24.5334C24.5695 26.2045 23.144 27.5378 21.3453 28.5334C19.5465 29.4934 17.5101 29.9734 15.2362 29.9734V23.2534C16.3222 23.2534 17.1707 22.8623 17.7816 22.08C18.4265 21.2978 18.7489 20.1956 18.7489 18.7734H27.1998ZM4.7998 43.2001V4.80005H13.2507V43.2001H4.7998Z" fill="#003049"/>
<path d="M15.2865 0C15.3078 1.492e-06 15.329 0.00213141 15.3503 0.00242123C18.2471 0.0188849 21.0061 0.657396 23.5238 2.02253L23.5246 2.02172C23.5359 2.02773 23.5467 2.03506 23.558 2.04109C23.5677 2.04635 23.578 2.05034 23.5876 2.05562L23.5868 2.05643C26.0797 3.38697 28.1368 5.27871 29.6547 7.71645C31.2112 10.1808 31.9687 12.9556 31.9969 15.8962C31.9978 15.9351 32 15.9741 32 16.0132V18.8694C32 18.8983 31.9981 18.9271 31.9977 18.9558C31.9744 21.9239 31.2092 24.723 29.6547 27.2194C29.6464 27.2328 29.6375 27.2457 29.629 27.259C28.104 29.6571 26.0527 31.5295 23.5876 32.8802C23.5667 32.8917 23.5456 32.903 23.5246 32.9141C21.7931 33.829 19.9493 34.406 18.027 34.6841V43.0413C18.027 45.7799 15.8866 48 13.2462 48H4.78086C2.14052 47.9999 0 45.7799 0 43.0413V4.95867C3.28536e-05 2.22014 2.14054 6.98536e-05 4.78086 0H15.2865ZM15.2351 11.6235C16.3229 11.6235 17.1731 12.0108 17.785 12.7865C18.3907 13.5138 18.7121 14.5205 18.7499 15.8058L18.7538 16.0664V18.817L18.7499 19.0776C18.712 20.3626 18.3906 21.3689 17.785 22.0961C17.1731 22.8718 16.323 23.2599 15.2351 23.2599H13.2462V11.6235H15.2351ZM4.78086 43.0413H13.2462V29.9239H15.2865C17.4015 29.9173 19.3109 29.4991 21.0143 28.6689L21.3543 28.4962C23.1562 27.5089 24.5841 26.1859 25.638 24.5286C26.6831 22.8502 27.2097 20.964 27.2184 18.8694L27.2191 16.0132C27.2104 13.919 26.6831 12.0499 25.638 10.4064C24.5841 8.71402 23.1561 7.39166 21.3543 6.43965C19.5661 5.45984 17.5435 4.96684 15.2865 4.95948L4.78086 4.95867V43.0413Z" fill="#F5F5F7"/>
</svg>
