<svg width="1600" height="800" viewBox="0 0 1600 800" fill="none" xmlns="http://www.w3.org/2000/svg">
<g clip-path="url(#clip0_11115_366)">
<path d="M1600 800V0L0 800H1600Z" fill="#003049"/>
<mask id="mask0_11115_366" style="mask-type:luminance" maskUnits="userSpaceOnUse" x="590" y="-93" width="987" height="987">
<path d="M1126.23 -93L590 356.951L1039.95 893.182L1576.18 443.231L1126.23 -93Z" fill="white"/>
</mask>
<g mask="url(#mask0_11115_366)">
<path d="M1078.97 121.823C1079.65 71.8666 1008.55 61.8741 995.426 110.081C975.724 64.1689 906.707 83.9591 914.326 133.336C877.654 99.4064 822.653 145.558 849.698 187.567C802.395 171.487 770.919 236.021 812.713 263.396C762.958 267.947 760.452 339.703 809.767 347.714C766.165 372.106 793.062 438.679 841.372 425.938L862.321 450.904L1171.47 191.498L1150.52 166.532C1171.46 121.169 1110.57 83.1202 1078.97 121.823Z" fill="#FFF7E6"/>
<path d="M1069.36 186.304C1064.2 190.631 1056.5 190.043 1052.06 184.944C1046.75 178.836 1039.38 175.316 1031.29 175.025C1023.58 174.749 1016.21 177.5 1010.57 182.752C1004.92 188.01 1001.66 195.154 1001.38 202.869C1001.17 208.768 996.821 213.7 990.992 214.644C985.165 215.59 979.479 212.288 977.415 206.758C975.412 201.398 971.443 197.14 966.237 194.766C961.029 192.391 955.212 192.188 949.852 194.191C938.788 198.327 933.149 210.691 937.285 221.756C939.678 228.159 936.425 235.292 930.023 237.684C923.619 240.077 916.486 236.825 914.095 230.421C905.18 206.57 917.333 179.915 941.186 171.001C952.739 166.685 965.284 167.125 976.506 172.24C979.182 173.46 981.709 174.912 984.06 176.57C986.65 172.205 989.884 168.186 993.703 164.629C1004.2 154.859 1017.86 149.769 1032.18 150.283C1046.97 150.813 1061.03 157.522 1070.74 168.691C1075.23 173.848 1074.69 181.667 1069.53 186.155C1069.47 186.206 1069.41 186.255 1069.36 186.304Z" fill="#FCBF49"/>
<path d="M927.534 396.185L955.327 415.411L951.363 440.558L1223.12 715.815L1248.3 718.357L1428.27 567.343L1187.7 177.877L927.534 396.185Z" fill="#FFF7E6"/>
<path d="M1037.85 346.169L1308.07 668.206L1367.83 618.056L1120.37 276.927L1081.23 268.765L1032.46 309.69L1037.85 346.169Z" fill="#D62828"/>
<path d="M927.534 396.185L846.088 464.526L1187.86 769.07L1248.3 718.357L955.326 415.411L927.534 396.185Z" fill="#D62828"/>
<path opacity="0.1" d="M846.088 464.526L901.811 514.18L1226.93 241.375L1187.7 177.877L927.534 396.185L846.088 464.526Z" fill="black"/>
<path d="M1159.57 158.939L832.325 433.53C818.535 445.101 816.738 465.657 828.307 479.446C839.878 493.234 860.435 495.032 874.223 483.463L1201.47 208.872C1215.26 197.302 1217.05 176.744 1205.48 162.956C1193.91 149.167 1173.36 147.37 1159.57 158.939Z" fill="#FCBF49"/>
</g>
</g>
<defs>
<clipPath id="clip0_11115_366">
<rect width="1600" height="800" fill="white"/>
</clipPath>
</defs>
</svg>
