<svg width="50" height="80" viewBox="0 0 50 80" fill="none" xmlns="http://www.w3.org/2000/svg">
<mask id="path-1-outside-1_11043_311" maskUnits="userSpaceOnUse" x="5" y="10" width="42" height="59" fill="black">
<rect fill="white" x="5" y="10" width="42" height="59"/>
<path d="M21.8553 24.984V16.92H25.0553V24.984H21.8553ZM21.8553 47.128V39.064H25.0553V47.128H21.8553ZM29.4073 33.752V30.296H40.0312V33.752H29.4073ZM40.0312 30.36H29.4073C29.4073 28.6533 29.0019 27.3307 28.1913 26.392C27.4233 25.4533 26.3566 24.984 24.9913 24.984V16.92C27.8499 16.92 30.4099 17.5173 32.6713 18.712C34.9326 19.864 36.7246 21.464 38.0473 23.512C39.3699 25.5173 40.0312 27.8 40.0312 30.36ZM40.0312 33.688C40.0312 36.248 39.3699 38.552 38.0473 40.6C36.7246 42.6053 34.9326 44.2053 32.6713 45.4C30.4099 46.552 27.8499 47.128 24.9913 47.128V39.064C26.3566 39.064 27.4233 38.5947 28.1913 37.656C29.0019 36.7173 29.4073 35.3947 29.4073 33.688H40.0312ZM11.8713 63V16.92H22.4953V63H11.8713Z"/>
</mask>
<path d="M21.8553 24.984V16.92H25.0553V24.984H21.8553ZM21.8553 47.128V39.064H25.0553V47.128H21.8553ZM29.4073 33.752V30.296H40.0312V33.752H29.4073ZM40.0312 30.36H29.4073C29.4073 28.6533 29.0019 27.3307 28.1913 26.392C27.4233 25.4533 26.3566 24.984 24.9913 24.984V16.92C27.8499 16.92 30.4099 17.5173 32.6713 18.712C34.9326 19.864 36.7246 21.464 38.0473 23.512C39.3699 25.5173 40.0312 27.8 40.0312 30.36ZM40.0312 33.688C40.0312 36.248 39.3699 38.552 38.0473 40.6C36.7246 42.6053 34.9326 44.2053 32.6713 45.4C30.4099 46.552 27.8499 47.128 24.9913 47.128V39.064C26.3566 39.064 27.4233 38.5947 28.1913 37.656C29.0019 36.7173 29.4073 35.3947 29.4073 33.688H40.0312ZM11.8713 63V16.92H22.4953V63H11.8713Z" fill="white"/>
<path d="M21.8553 24.984H15.8553C15.8553 28.2977 18.5415 30.984 21.8553 30.984V24.984ZM21.8553 16.92V10.92C18.5415 10.92 15.8553 13.6063 15.8553 16.92H21.8553ZM25.0553 16.92H31.0553C31.0553 13.6063 28.369 10.92 25.0553 10.92V16.92ZM25.0553 24.984V30.984C28.369 30.984 31.0553 28.2977 31.0553 24.984H25.0553ZM21.8553 47.128H15.8553C15.8553 50.4417 18.5415 53.128 21.8553 53.128V47.128ZM21.8553 39.064V33.064C18.5415 33.064 15.8553 35.7503 15.8553 39.064H21.8553ZM25.0553 39.064H31.0553C31.0553 35.7503 28.369 33.064 25.0553 33.064V39.064ZM25.0553 47.128V53.128C28.369 53.128 31.0553 50.4417 31.0553 47.128H25.0553ZM29.4073 33.752H23.4073C23.4073 37.0657 26.0935 39.752 29.4073 39.752V33.752ZM29.4073 30.296V24.296C26.0935 24.296 23.4073 26.9823 23.4073 30.296H29.4073ZM40.0312 30.296H46.0312C46.0312 26.9823 43.345 24.296 40.0312 24.296V30.296ZM40.0312 33.752V39.752C43.345 39.752 46.0312 37.0657 46.0312 33.752H40.0312ZM40.0312 30.36V36.36C43.345 36.36 46.0312 33.6737 46.0312 30.36H40.0312ZM29.4073 30.36H23.4073C23.4073 33.6737 26.0935 36.36 29.4073 36.36V30.36ZM28.1913 26.392L23.5475 30.1914C23.5812 30.2326 23.6155 30.2734 23.6503 30.3137L28.1913 26.392ZM24.9913 24.984H18.9913C18.9913 28.2977 21.6775 30.984 24.9913 30.984V24.984ZM24.9913 16.92V10.92C21.6775 10.92 18.9913 13.6063 18.9913 16.92H24.9913ZM32.6713 18.712L29.8685 24.0172C29.8948 24.031 29.9212 24.0447 29.9477 24.0582L32.6713 18.712ZM38.0473 23.512L33.007 26.7671C33.0175 26.7833 33.028 26.7995 33.0386 26.8156L38.0473 23.512ZM40.0312 33.688H46.0312C46.0312 30.3743 43.345 27.688 40.0312 27.688V33.688ZM38.0473 40.6L43.0559 43.9036C43.0665 43.8875 43.077 43.8713 43.0875 43.8551L38.0473 40.6ZM32.6713 45.4L35.3948 50.7462C35.4213 50.7327 35.4477 50.719 35.474 50.7052L32.6713 45.4ZM24.9913 47.128H18.9913C18.9913 50.4417 21.6775 53.128 24.9913 53.128V47.128ZM24.9913 39.064V33.064C21.6775 33.064 18.9913 35.7503 18.9913 39.064H24.9913ZM28.1913 37.656L23.6503 33.7343C23.6155 33.7746 23.5812 33.8154 23.5475 33.8566L28.1913 37.656ZM29.4073 33.688V27.688C26.0935 27.688 23.4073 30.3743 23.4073 33.688H29.4073ZM11.8713 63H5.87125C5.87125 66.3137 8.55754 69 11.8713 69L11.8713 63ZM11.8713 16.92V10.92C8.55754 10.92 5.87125 13.6063 5.87125 16.92H11.8713ZM22.4953 16.92H28.4953C28.4953 13.6063 25.809 10.92 22.4953 10.92V16.92ZM22.4953 63V69C25.809 69 28.4953 66.3137 28.4953 63H22.4953ZM21.8553 24.984H27.8553V16.92H21.8553H15.8553V24.984H21.8553ZM21.8553 16.92V22.92H25.0553V16.92V10.92H21.8553V16.92ZM25.0553 16.92H19.0553V24.984H25.0553H31.0553V16.92H25.0553ZM25.0553 24.984V18.984H21.8553V24.984V30.984H25.0553V24.984ZM21.8553 47.128H27.8553V39.064H21.8553H15.8553V47.128H21.8553ZM21.8553 39.064V45.064H25.0553V39.064V33.064H21.8553V39.064ZM25.0553 39.064H19.0553V47.128H25.0553H31.0553V39.064H25.0553ZM25.0553 47.128V41.128H21.8553V47.128V53.128H25.0553V47.128ZM29.4073 33.752H35.4073V30.296H29.4073H23.4073V33.752H29.4073ZM29.4073 30.296V36.296H40.0312V30.296V24.296H29.4073V30.296ZM40.0312 30.296H34.0312V33.752H40.0312H46.0312V30.296H40.0312ZM40.0312 33.752V27.752H29.4073V33.752V39.752H40.0312V33.752ZM40.0312 30.36V24.36H29.4073V30.36V36.36H40.0312V30.36ZM29.4073 30.36H35.4073C35.4073 27.7548 34.7861 24.8484 32.7322 22.4703L28.1913 26.392L23.6503 30.3137C23.5566 30.2052 23.4872 30.0995 23.4388 30.0096C23.3913 29.9212 23.3714 29.8617 23.3666 29.846C23.3622 29.8316 23.3727 29.8616 23.3843 29.9477C23.3958 30.0342 23.4073 30.1692 23.4073 30.36H29.4073ZM28.1913 26.392L32.835 22.5926C30.775 20.0748 27.9008 18.984 24.9913 18.984V24.984V30.984C24.9831 30.984 24.7464 30.9808 24.3988 30.8279C24.0311 30.6661 23.7371 30.4231 23.5475 30.1914L28.1913 26.392ZM24.9913 24.984H30.9913V16.92H24.9913H18.9913V24.984H24.9913ZM24.9913 16.92V22.92C26.9898 22.92 28.5686 23.3304 29.8685 24.0172L32.6713 18.712L35.474 13.4068C32.2512 11.7043 28.71 10.92 24.9913 10.92V16.92ZM32.6713 18.712L29.9477 24.0582C31.3062 24.7503 32.2827 25.6456 33.007 26.7671L38.0473 23.512L43.0875 20.2568C41.1665 17.2824 38.559 14.9777 35.3948 13.3658L32.6713 18.712ZM38.0473 23.512L33.0386 26.8156C33.6714 27.775 34.0312 28.8935 34.0312 30.36H40.0312H46.0312C46.0312 26.7065 45.0684 23.2596 43.0559 20.2084L38.0473 23.512ZM40.0312 33.688H34.0312C34.0312 35.154 33.671 36.3167 33.007 37.3448L38.0473 40.6L43.0875 43.8551C45.0688 40.7873 46.0312 37.342 46.0312 33.688H40.0312ZM38.0473 40.6L33.0386 37.2964C32.3072 38.4053 31.2975 39.3399 29.8685 40.0948L32.6713 45.4L35.474 50.7052C38.5677 49.0707 41.142 46.8053 43.0559 43.9036L38.0473 40.6ZM32.6713 45.4L29.9477 40.0538C28.6314 40.7243 27.0241 41.128 24.9913 41.128V47.128V53.128C28.6758 53.128 32.1884 52.3797 35.3948 50.7462L32.6713 45.4ZM24.9913 47.128H30.9913V39.064H24.9913H18.9913V47.128H24.9913ZM24.9913 39.064V45.064C27.9008 45.064 30.775 43.9732 32.835 41.4554L28.1913 37.656L23.5475 33.8566C23.7371 33.6249 24.0311 33.3819 24.3988 33.2201C24.7464 33.0672 24.9831 33.064 24.9913 33.064V39.064ZM28.1913 37.656L32.7322 41.5777C34.7861 39.1996 35.4073 36.2932 35.4073 33.688H29.4073H23.4073C23.4073 33.8788 23.3958 34.0138 23.3843 34.1003C23.3727 34.1864 23.3622 34.2164 23.3666 34.202C23.3714 34.1863 23.3913 34.1268 23.4388 34.0384C23.4872 33.9485 23.5566 33.8428 23.6503 33.7343L28.1913 37.656ZM29.4073 33.688V39.688H40.0312V33.688V27.688H29.4073V33.688ZM11.8713 63H17.8713V16.92H11.8713H5.87125V63H11.8713ZM11.8713 16.92V22.92H22.4953V16.92V10.92H11.8713V16.92ZM22.4953 16.92H16.4953V63H22.4953H28.4953V16.92H22.4953ZM22.4953 63V57H11.8713V63V69H22.4953V63Z" fill="#D62828" mask="url(#path-1-outside-1_11043_311)"/>
</svg>
